<?xml version="1.0" standalone="no"?>
<!DOCTYPE svg PUBLIC "-//W3C//DTD SVG 20010904//EN"
 "http://www.w3.org/TR/2001/REC-SVG-20010904/DTD/svg10.dtd">
<svg version="1.0" xmlns="http://www.w3.org/2000/svg"
 width="914.000000pt" height="980.000000pt" viewBox="0 0 914.000000 980.000000"
 preserveAspectRatio="xMidYMid meet">

<g transform="translate(0.000000,980.000000) scale(0.100000,-0.100000)"
fill="#000000" stroke="none">
<path d="M8185 9795 c-5 -2 -192 -52 -415 -110 -373 -98 -1390 -370 -3260
-870 -404 -109 -807 -217 -895 -240 -2918 -786 -3605 -978 -3605 -1006 0 -23
141 -562 440 -1684 l139 -520 5 -2105 c3 -1213 9 -2154 14 -2221 31 -371 287
-736 640 -913 134 -67 241 -97 391 -108 167 -12 5379 -19 6071 -7 543 9 552
10 734 98 301 145 546 421 641 721 26 83 26 93 35 475 5 215 9 1233 10 2263
l0 1872 -3087 0 c-2626 0 -5042 7 -5050 15 -3 2 70 21 2967 796 3688 987 4696
1258 4827 1295 l51 15 -64 252 c-140 547 -397 1500 -470 1742 -67 222 -82 253
-119 240z m-501 -972 c38 -75 203 -661 193 -687 -3 -8 -31 -24 -63 -35 -135
-51 -487 -144 -631 -166 l-42 -7 -31 99 c-42 134 -150 568 -150 602 0 27 3 29
123 64 112 33 485 138 532 150 42 10 55 6 69 -20z m-1493 -428 c22 -51 189
-630 189 -657 0 -10 -9 -22 -19 -28 -24 -12 -313 -95 -526 -150 -150 -38 -160
-40 -172 -23 -26 35 -187 567 -200 660 -6 42 -5 43 33 59 109 46 590 182 647
183 24 1 31 -6 48 -44z m-1462 -490 c44 -131 151 -538 151 -574 0 -16 -16 -25
-82 -45 -223 -67 -601 -166 -637 -166 -16 0 -24 13 -40 68 -55 186 -84 294
-130 469 l-49 193 65 20 c59 18 350 97 553 149 124 32 118 36 169 -114z
m-1545 -289 c34 -53 204 -692 187 -709 -9 -9 -620 -181 -687 -193 -29 -6 -32
-3 -51 42 -39 89 -183 623 -183 675 0 14 17 23 68 38 240 71 606 169 633 170
9 1 24 -10 33 -23z m-1493 -413 c40 -105 156 -557 166 -644 l6 -56 -39 -15
c-95 -38 -554 -152 -644 -160 -34 -3 -35 -2 -53 52 -28 83 -131 473 -152 573
-10 48 -15 90 -12 93 13 14 427 129 587 164 118 26 128 25 141 -7z m6659
-4344 l0 -1801 -31 -59 c-62 -116 -149 -180 -276 -202 -51 -9 -785 -12 -2998
-10 -2853 1 -3362 6 -3456 33 -44 12 -156 120 -176 169 -8 18 -19 95 -24 170
-4 75 -12 893 -15 1819 l-7 1682 3491 0 3492 0 0 -1801z"/>
</g>
</svg>
